<?xml version="1.0" standalone="no"?>
<!DOCTYPE svg PUBLIC "-//W3C//DTD SVG 20010904//EN"
 "http://www.w3.org/TR/2001/REC-SVG-20010904/DTD/svg10.dtd">
<svg version="1.0" xmlns="http://www.w3.org/2000/svg"
 width="700.000000pt" height="700.000000pt" viewBox="0 0 700.000000 700.000000"
 preserveAspectRatio="xMidYMid meet">
<metadata>
Created by potrace 1.11, written by Peter Selinger 2001-2013
</metadata>
<g transform="translate(0.000000,700.000000) scale(0.100000,-0.100000)"
fill="#000000" stroke="none">
<path d="M2690 6989 c-153 -23 -204 -34 -305 -66 -278 -89 -499 -224 -702
-429 -228 -231 -376 -505 -446 -825 -36 -160 -40 -229 -42 -614 -1 -243 -5
-353 -14 -385 -59 -207 159 -405 391 -355 25 6 28 4 28 -22 1 -102 36 -273 80
-394 98 -270 318 -525 573 -664 l67 -37 0 -171 c0 -153 -2 -176 -20 -204 -10
-18 -30 -39 -44 -48 -19 -13 -342 -129 -486 -175 -14 -4 -50 -17 -80 -28 -30
-11 -102 -37 -160 -57 -58 -20 -114 -40 -125 -45 -11 -5 -90 -32 -177 -60 -86
-28 -184 -68 -218 -88 -94 -56 -182 -149 -229 -246 -38 -75 -47 -114 -135
-556 -52 -261 -97 -486 -100 -500 -3 -14 -35 -173 -71 -355 -56 -275 -66 -341
-62 -395 7 -87 35 -148 91 -197 91 -80 -193 -73 3008 -73 3133 1 2902 -4 2979
59 74 62 115 189 82 256 -41 80 -62 88 -253 91 -85 1 -159 3 -165 3 -5 1 8 10
31 21 29 15 47 33 64 67 l23 46 -1 996 c0 678 -3 1005 -11 1023 -15 39 -68 86
-110 98 -23 6 -445 10 -1176 10 l-1140 0 -65 24 c-36 13 -72 26 -80 29 -8 3
-33 11 -55 17 -60 18 -103 48 -122 83 -14 26 -17 65 -18 210 l-1 177 100 67
c125 83 282 238 359 354 100 151 181 349 202 494 3 23 7 51 10 63 2 13 5 48 6
78 2 54 3 55 30 49 73 -16 169 -5 232 27 131 66 198 204 160 330 -11 37 -14
162 -17 590 -3 467 -5 553 -20 617 -32 140 -75 247 -135 336 -42 62 -140 158
-195 190 -23 13 -93 75 -156 138 -254 250 -517 373 -956 445 -67 11 -353 12
-424 1z"/>
</g>
</svg>
