<?xml version="1.0" standalone="no"?>
<!DOCTYPE svg PUBLIC "-//W3C//DTD SVG 20010904//EN"
 "http://www.w3.org/TR/2001/REC-SVG-20010904/DTD/svg10.dtd">
<svg version="1.0" xmlns="http://www.w3.org/2000/svg"
 width="512.000000pt" height="512.000000pt" viewBox="0 0 512.000000 512.000000"
 preserveAspectRatio="xMidYMid meet">
<metadata>
Created by potrace 1.11, written by Peter Selinger 2001-2013
</metadata>
<g transform="translate(0.000000,512.000000) scale(0.100000,-0.100000)"
fill="#000000" stroke="none">
<path d="M1715 4694 c-267 -41 -490 -152 -682 -339 -109 -107 -182 -208 -245
-336 -49 -100 -95 -235 -105 -306 -6 -42 -9 -46 -74 -84 -127 -74 -293 -221
-356 -315 -15 -21 -29 -41 -33 -44 -13 -10 -82 -131 -109 -192 -32 -70 -76
-204 -85 -258 -3 -19 -9 -46 -12 -60 -11 -40 -13 -389 -3 -460 25 -179 125
-424 228 -560 217 -286 527 -461 876 -495 39 -4 226 -7 417 -7 315 0 347 -1
353 -16 4 -9 38 -107 77 -217 38 -110 85 -245 104 -300 20 -55 42 -120 51
-145 38 -114 52 -138 82 -148 36 -12 85 3 99 30 10 21 48 127 176 493 74 212
76 218 92 262 l15 41 352 1 c377 1 444 4 550 27 418 87 772 399 907 797 26 77
55 194 52 208 0 4 20 18 46 32 204 111 391 306 496 517 97 193 128 327 132
575 5 278 -19 399 -119 615 -89 194 -286 412 -467 519 -128 75 -292 137 -414
157 -21 3 -48 8 -60 12 -11 3 -523 6 -1136 7 -895 2 -1133 0 -1205 -11z
m-1054 -1311 c0 -75 4 -135 14 -198 3 -16 5 -33 6 -37 0 -4 10 -40 21 -80 11
-40 22 -83 25 -96 3 -12 9 -25 14 -28 5 -3 9 -12 9 -20 0 -31 83 -183 150
-275 83 -115 245 -263 359 -327 76 -43 97 -54 154 -78 34 -15 76 -30 92 -35
17 -4 55 -14 85 -23 70 -19 116 -26 215 -34 91 -8 2161 -7 2215 1 75 11 166
28 198 38 18 6 35 9 38 7 7 -7 -41 -139 -76 -208 -154 -304 -466 -529 -800
-576 -30 -4 -242 -8 -472 -9 -439 -1 -434 -1 -459 -47 -10 -18 -113 -310 -177
-501 -19 -59 -38 -107 -42 -107 -3 0 -20 42 -37 93 -18 50 -59 171 -93 267
-34 96 -68 192 -74 213 -6 20 -22 47 -34 59 -21 22 -24 22 -444 23 -233 1
-443 5 -468 9 -438 69 -773 372 -884 802 -37 143 -42 374 -11 559 21 127 105
315 196 435 71 95 239 250 270 250 5 0 9 -35 10 -77z"/>
</g>
</svg>
